<svg x="0" y="0" width="512" height="512" filtersec="colorsb8691143014" class="image-svg-svg primary" style="overflow: visible;"><svg xmlns="http://www.w3.org/2000/svg" viewBox="-0.024268120527267456 0.0138092041015625 510.4361877441406 595.165283203125"><g><g fill="#333333"><path d="M373.62 484.54c-5.25 4.33-5.75 9-7.46 13-10.33 24.67-20.54 49.38-30.87 74-1 2.28-1.08 6-4.69 5.66-3-.3-2.5-3.78-2.86-6-2.3-14-4.39-27.93-6.67-41.89-.36-2.19.14-5.34-2.9-5.95-2.59-.52-3.4 2.39-4.72 4q-26 31.2-51.91 62.46c-6 7.19-6.73 7.17-12.89-.21q-26.54-31.79-53.1-63.57c-.84-1-1.81-1.92-3.77-4-3.64 10.95-3.93 21.34-5.89 31.41-1.15 5.91-1.5 12-2.59 17.88-.43 2.35.12 6.07-3.61 6.25-2.9.14-3.42-3.16-4.3-5.28q-11.81-28.09-23.49-56.3c-3.35-8.07-6.67-16.15-10.09-24.2-.81-1.89-1.31-4.65-3.83-4.78-2.93-.16-2.91 2.85-3.57 4.68-2.26 6.2-4.22 12.5-6.43 18.72-.68 1.9-1 4.56-3.82 4.64s-3.17-2.64-4-4.49q-15-34.66-29.91-69.34c-.7-1.61-.76-3.72-3.74-4.37-4 6-6 12.7-8.54 19.29-.78 2.05-.76 5.49-4.06 5.16-3-.3-2.73-3.62-3.23-5.79-5.45-23.53-10.8-47.09-16.23-70.63-.46-2-1.27-3.9-2.65-8.07-5.16 8.17-9.21 14.82-13.54 21.32-2 3-3.13 8.72-7.16 7.61s-1.56-6.44-1.23-9.87q2.91-30.45 6.24-60.87c.73-6.61-1-9.88-9.21-8.53-6.73 1.1-13.64 1.3-20.49 1.73-2.17.13-5 .76-6.15-1.58s1.46-3.74 3-5.1q24.43-21.49 49-42.83c.8-.7 2.1-.93 3.79-1.64-4.65-3.94-8.78-3.31-12.56-3.63-8.25-.7-16.51-1.28-24.76-2-2-.17-4.19-.51-5-2.51-.89-2.31 1.54-3 2.9-4.27q30-27.35 60.07-54.69c3.7-3.35 3.55-5.07-1.85-5.9-5.64-.87-11.23-2-16.85-3-1.94-.35-4.37-.36-4.82-2.54s1.92-3 3.63-3.81c17.24-8.22 34.53-16.35 51.75-24.61 2.35-1.13 6.56-1.33 6-4.55-.44-2.69-4.39-1.55-6.66-2.4-3.74-1.4-10.67 0-10.64-4.28 0-4 6.88-3.47 10.82-4.43 10.79-2.61 21.67-4.91 32.58-7.09 7-1.4 9.56-4.32 7.26-11.12-7.59-22.49-14.83-45.09-21.94-67.71-1.74-5.54-4.53-8.81-11.19-10.17C104.12 56.09 98.66 46 102.42 37s15.74-13.31 25.71-9c9.3 4 12.93 15.15 6.63 23.45-3.72 4.9-2.56 7.54 1.5 11.21 11.29 10.2 23.29 19.41 38.19 24.87 19.61 7.18 35.19 2.36 48.89-15.23 8.49-10.9 14.76-23 21.69-34.72 2.53-4.28.21-6.42-2.75-9.34-5.81-5.74-6.55-12.52-3-19.67 3.32-6.6 9.18-9 16.76-8.49 7.05.51 12.66 3.18 15.48 9.5s2.6 12.68-3 17.44c-5 4.24-4.82 7.79-1.85 12.95 8.26 14.35 15.52 29.15 28.54 40.77 11.2 10 23.86 12.86 38.55 7.91 17.1-5.76 30.49-16.21 42.77-28.15 4.12-4 .58-6.4-1.27-9.51-3.55-6-3.57-12.12.62-17.84 4.58-6.25 11.56-7.2 19.06-6.26s11.38 5.67 13.25 11.85a14.82 14.82 0 0 1-12.55 19.09c-6.66.91-9.17 3.94-10.84 9.2q-11.25 35.42-22.92 70.72c-2 6 .68 8.68 6.64 10.37 13.93 3.95 27.77 8.17 41.63 12.33 2.09.63 5.33.88 5.18 3.33-.21 3.31-3.84 2.18-6.15 2.6-3.2.59-6.79-.93-10.27 1.73 7.48 5.35 15.92 8.51 23.87 12.38 10.1 4.92 20.44 9.44 30.65 14.19 1.7.79 4.17 1.41 3.44 3.8-.5 1.62-2.51 2-4.21 2.29-4.8.69-9.62 1.3-14.43 1.93-2.8.37-6.59-.1-7.78 2.37-1.39 2.87 2.4 4.36 4.28 6.09 18.56 17.08 37.25 34 55.83 51.1 1.91 1.75 5.47 3.27 4.27 6.2-1.27 3.12-5.22 2.7-8.25 3-8.52.83-17.07 1.44-25.6 2.28-1.87.18-4.4.14-4.87 2.39-.37 1.76 1.73 2.47 2.94 3.52q24 20.8 47.85 41.65c1.58 1.38 4.27 2.76 3.31 5-1.2 2.84-4.41 1.73-6.83 1.56-7.7-.54-15.4-1.06-23.06-1.95-4.73-.55-7.06.27-6.55 5.25 2.27 21.85 4.31 43.72 6.46 65.58.15 1.56.52 3.1.62 4.67.09 1.29.1 2.82-1.35 3.46-2.18 1-3.06-.8-3.89-2.08-4.22-6.53-8.32-13.13-12.55-19.65-1.1-1.69-1.64-4.5-4.49-4-2.24.37-2.06 2.93-2.45 4.62q-8.17 35.71-16.2 71.46c-.51 2.26-.14 5.62-2.92 6-3.86.55-3.75-3.3-4.57-5.56-2.49-6.85-4.58-13.82-9.31-21.69-5.61 12.89-10.66 24.43-15.68 36-5.59 12.88-11.13 25.78-16.75 38.65-.9 2.06-.84 5.32-4.24 5.13s-3.86-3.45-4.72-5.86c-2.63-7.41-5.16-14.89-8.11-23.35zM186.1 369.08c2.65.87 5.06-2 6.82.18s-.7 3.87-1.78 5.56c-2.3 3.61-4.65 7.22-7.28 10.64-3.72 4.83-4.11 9.4-.41 14.49 4.11 5.66 7.9 11.53 11.43 17.51 2.48 4.19 5.32 4.63 9.77 2.58 10-4.57 20.15-8.75 30.18-13.2 11-4.88 12.87-8.24 10.6-19.12-.42-2-1.58-3.89-2.43-5.82-3.29-7.45-10.42-10.73-17.81-13.79-2-.84-4.61-1.84-3.77-4.49.63-2 3-2.19 5-2.39 8.42-.86 16.94-3.48 25 1.57a6.76 6.76 0 0 0 7.36.06c7.44-5.16 15.36-2.52 23.16-1.51 2.41.31 6 .11 6.46 2.81.54 2.94-3.15 3.35-5.31 4.2-13.53 5.35-19.17 14.86-18.45 28 .22 4.05 1.89 6.89 6.06 8.65 9.35 3.95 18.51 8.3 27.93 12.09 14.39 5.8 13.43 5 22.24-6.54 9.55-12.53 10.6-23.45-.85-35-1.46-1.47-4.48-4.06-1.43-6 4.35-2.75 1.31-4-.48-5.87s-6.24-2.7-4.83-5.62 5.7-1.71 8.62-1.5c7.19.52 13.1 0 17.48-6.63 5-7.59 11.61-14.26 17.14-21.57 3.3-4.37 6.15-8.35 12.65-2-.6-4.64-1.39-7.75-1.35-10.84.21-14.44-4-26.6-19.11-33.91-3.47-1.68-6.33-4.46-9.35-6.86-1.63-1.3-4.74-2.33-3.65-4.7 1.31-2.82 4.46-1.26 6.87-1 1.12.11 2.19.61 3.31.81 1.88.34 4.12 2 5.61.33 1.81-2-.47-3.88-1.55-5.58-5.45-8.6-11-17.14-16.52-25.7-5.64-8.76-6.46-8.91-15.84-3.79q-18.79 10.26-37.68 20.37c-1.43.77-3.14 2-4.63.65s.21-2.81.89-4.16c1.86-3.74 6.92-5.74 8-12.22-6.65 4.4-11.74 7.68-16.73 11.09-12.13 8.27-12.34 8.2-24.38.17-4.5-3-8.42-7.21-14.83-7.86.22 3 2.66 4 3.71 5.81 1.38 2.34 5.67 4.53 3 7.22-2.13 2.16-5.16-.79-7.52-2-12.12-6.45-24.44-12.62-36.15-19.64-6.63-4-9.82-2.66-13.23 3.29-4.78 8.33-10.46 16.22-15.5 24.43-1.53 2.49-4.53 4.63-3.81 8.5 4.14-.76 7.73-1.54 11.37-2 1.86-.25 4.32-.88 5.17 1.46.65 1.81-1.32 2.66-2.61 3.62-7.29 5.47-14.62 10.92-21.88 16.42-3.13 2.38-5.73 5-6.14 9.07-.88 8.72-1.93 17.42-3.14 28.15 5.6-7.14 8.43-4.24 11.56-.2 6.29 8.1 12.94 16 19.41 23.95 2.47 3 5.24 5.12 9.83 5.4 4.81.29 12.11-2.87 13.89 2.33 1.72 5.02-6.89 5.84-10.09 10.1zm100.7 92.82c5.59-8.58 10.39-16.24 15.51-23.71 3.24-4.73 1.53-6.93-3.79-8.5-12.78-3.76-25.48-7.76-38.17-11.76a13.58 13.58 0 0 0-8.36-.29c-13.82 4.22-27.66 8.39-41.47 12.63-2.49.76-5.58 1.89-3.78 4.87 5 8.28 10.51 16.33 17 26.25.54-5.4-2.64-7.93-.34-11 2.67-.17 4 1.64 5.48 3.13 7.15 7.11 14.48 14.07 21.36 21.39 3.74 4 6.56 4.12 10.36.16 5.84-6.08 11.82-12.08 18.23-17.65 2.65-2.3 4.19-8.11 8.41-6.15 3.71 1.73-2.61 5.73-.45 10.64z"></path><path d="M216.9 348c-5.34-4.81-3.72-10.85-5.23-16.17-.56-2-.29-4.15-.53-6.23-1.29-11.11-1.87-12-14.16-11.47-11.16.52-20.32-.83-24.77-11.8-1.75-4.32-1-6.79 4.15-6.88 10.82-.2 21.86-1.64 32.4.61 8.49 1.81 11.1-.73 11.27-7.77 0-2-.31-4.31 4.13-5.86 3.58 22.87-5.36 43.9-7.26 65.57zM292.92 346.62c-2-12.79-3.95-25.59-6-38.37-1.12-7-2.44-13.94-1.51-21 .2-1.51.07-3.67 2.08-3.87 2.94-.3 2.48 2.25 2.81 3.91 2 10.06 1.93 9.47 12.68 8.56 10.21-.87 20.56-.44 30.84-.34 5 .05 6.75 2.42 4.35 6.71-3.9 7-8.11 12.42-18.67 12-18.75-.72-18.73-.1-20.78 16.75-.64 5.28-1.69 10.52-2.55 15.78z"></path></g></g></svg></svg>